<?xml version="1.0" standalone="no"?>
<!DOCTYPE svg PUBLIC "-//W3C//DTD SVG 20010904//EN"
 "http://www.w3.org/TR/2001/REC-SVG-20010904/DTD/svg10.dtd">
<svg version="1.0" xmlns="http://www.w3.org/2000/svg"
 width="822.000000pt" height="757.000000pt" viewBox="0 0 822.000000 757.000000"
 preserveAspectRatio="xMidYMid meet">

<g transform="translate(0.000000,757.000000) scale(0.100000,-0.100000)"
fill="#000000" stroke="none">
<path d="M7545 6760 c-7 -12 2 -30 16 -30 12 0 12 27 0 35 -5 3 -12 1 -16 -5z"/>
<path d="M4030 6481 c0 -4 32 -12 71 -15 311 -31 573 -217 809 -577 147 -224
237 -461 276 -729 20 -143 15 -435 -11 -549 -60 -267 -168 -475 -369 -706
l-96 -110 43 -39 c23 -21 57 -50 76 -64 l34 -26 55 59 c274 294 438 603 494
930 17 102 19 146 15 290 -7 193 -26 305 -82 472 -109 325 -339 657 -580 838
-131 98 -319 181 -483 215 -101 20 -252 27 -252 11z"/>
<path d="M3927 6419 c-41 -10 -156 -64 -172 -81 -11 -11 -12 -12 95 17 204 56
457 -45 660 -262 340 -364 491 -969 365 -1462 -57 -223 -160 -418 -318 -604
-37 -44 -65 -83 -62 -87 3 -4 44 -34 91 -67 l86 -58 45 50 c219 244 317 401
387 623 111 351 70 791 -109 1180 -165 357 -491 671 -773 743 -80 20 -226 24
-295 8z"/>
<path d="M3464 6330 c-25 -5 -20 -8 33 -19 58 -13 83 -10 83 9 0 10 -77 17
-116 10z"/>
<path d="M3855 6315 c-33 -7 -82 -22 -110 -33 l-50 -21 81 0 c96 -1 214 -29
301 -71 202 -99 412 -365 502 -635 86 -258 84 -612 -4 -880 -60 -180 -188
-405 -333 -584 -28 -36 -50 -67 -47 -69 12 -12 164 -75 192 -79 36 -6 68 21
163 137 206 251 312 526 327 850 20 438 -140 879 -425 1165 -191 193 -389 266
-597 220z"/>
<path d="M5186 6235 c-42 -52 -79 -101 -81 -108 -3 -7 26 -43 63 -80 l69 -68
64 35 c239 130 491 101 675 -79 126 -123 170 -287 129 -480 -35 -164 -129
-286 -279 -361 -50 -25 -91 -49 -91 -52 0 -4 7 -37 15 -74 l14 -68 42 0 c111
0 238 -51 323 -128 109 -100 165 -248 164 -437 0 -261 -111 -474 -335 -643
-87 -65 -210 -134 -326 -183 -51 -21 -101 -44 -111 -51 -17 -12 -16 -15 24
-43 49 -33 92 -93 101 -142 4 -24 0 -46 -17 -80 -20 -41 -34 -53 -89 -81 -55
-28 -73 -32 -124 -30 -33 2 -61 8 -62 13 -6 18 44 45 111 59 36 8 75 22 85 31
57 52 12 205 -61 205 -9 0 -39 -31 -67 -69 -85 -116 -252 -298 -425 -464 -197
-188 -239 -255 -189 -300 27 -25 67 -21 90 8 22 27 32 23 32 -12 0 -105 -123
-170 -211 -110 -82 55 -97 142 -55 320 58 246 68 318 64 429 -4 99 -7 113 -42
183 -63 127 -179 228 -335 291 -77 31 -228 71 -316 83 l-70 10 80 -4 c107 -5
236 -44 370 -110 172 -85 256 -171 306 -317 41 -118 27 -308 -48 -617 -32
-133 -27 -177 26 -234 32 -34 45 -40 87 -44 44 -5 54 -2 80 21 l29 25 -33 1
c-84 0 -142 54 -142 129 0 66 35 131 123 226 113 123 155 182 172 238 23 79 7
140 -58 214 -28 32 -32 43 -32 94 0 52 -3 61 -33 92 -19 19 -47 38 -64 43 -24
7 -34 19 -49 58 -31 83 -87 126 -164 126 -36 0 -38 3 -49 52 -4 18 -22 38 -48
55 -34 23 -54 28 -107 29 -56 1 -74 7 -120 35 -47 29 -63 34 -115 33 -38 0
-73 -7 -94 -17 -32 -17 -34 -17 -59 3 -20 15 -40 20 -89 20 -53 0 -67 -4 -93
-26 -17 -14 -31 -32 -31 -40 0 -17 -2 -17 -51 -2 -58 17 -110 -2 -156 -57 -31
-38 -43 -45 -73 -45 -19 0 -40 -4 -47 -8 -14 -9 -163 -258 -163 -272 0 -6 -17
-45 -39 -88 -108 -216 -125 -437 -51 -672 16 -52 46 -124 67 -159 37 -64 139
-177 198 -220 l30 -22 -30 15 c-90 43 -212 161 -270 261 -147 250 -134 651 32
979 98 195 196 318 571 718 84 89 155 172 158 184 7 28 -65 175 -140 288 -229
344 -611 546 -1033 546 -115 0 -182 -17 -232 -58 l-33 -28 40 -65 c139 -228
182 -333 182 -446 0 -83 -19 -152 -59 -215 l-29 -46 56 -35 c121 -75 177 -156
195 -283 11 -75 -1 -200 -50 -539 -10 -70 -16 -185 -17 -320 -1 -191 1 -218
22 -295 28 -102 84 -225 143 -311 89 -132 289 -303 418 -356 65 -26 110 -31
92 -9 -10 11 -4 13 32 9 32 -4 67 3 133 25 323 111 448 130 546 85 49 -23 120
-89 144 -136 23 -44 28 -116 11 -165 -8 -23 -12 -44 -8 -46 3 -2 42 -12 86
-22 58 -12 123 -17 235 -17 198 0 244 8 624 109 68 18 126 13 199 -18 92 -40
126 -123 74 -184 -23 -26 -24 -26 -56 -10 -38 20 -65 14 -103 -22 -52 -48 -45
-138 14 -168 47 -24 167 5 223 55 40 36 48 35 26 -6 -31 -55 -106 -101 -194
-119 -79 -17 -108 -15 -335 18 -157 22 -197 19 -241 -18 -40 -33 -53 -78 -56
-194 -2 -85 -6 -106 -33 -164 l-31 -66 52 0 c73 0 145 37 225 114 37 35 82 71
100 80 18 10 107 30 197 45 186 32 265 63 328 127 73 74 103 159 114 323 7
113 5 110 79 161 60 41 87 103 82 185 -7 106 -61 160 -159 160 -32 -1 -55 2
-51 5 313 251 501 480 656 794 153 312 230 645 243 1056 9 301 -24 551 -107
807 -213 653 -654 1110 -1187 1227 -131 29 -130 29 -217 -79z m-1323 -2482
c-13 -2 -33 -2 -45 0 -13 2 -3 4 22 4 25 0 35 -2 23 -4z m-80 -10 c-7 -2 -19
-2 -25 0 -7 3 -2 5 12 5 14 0 19 -2 13 -5z m-99 -27 c-33 -12 -90 -39 -127
-59 -37 -20 -67 -35 -67 -33 0 3 27 21 60 41 58 35 151 73 180 74 8 0 -12 -10
-46 -23z m2051 -300 c72 -33 129 -87 162 -154 24 -49 28 -69 28 -142 0 -71 -4
-94 -26 -141 -45 -95 -153 -184 -312 -258 -133 -62 -160 -101 -161 -225 l0
-79 -22 28 c-65 81 -88 177 -60 250 23 59 60 88 193 151 171 80 233 154 241
286 7 115 -42 209 -153 291 l-40 30 49 -7 c27 -3 73 -17 101 -30z m-29 -122
c66 -113 3 -261 -133 -310 -21 -7 -66 -13 -101 -14 -54 0 -66 4 -87 25 -42 41
-34 55 35 55 102 0 210 53 245 121 17 32 19 99 6 147 -13 43 2 33 35 -24z m15
-277 c-24 -49 -18 -45 -180 -128 -139 -71 -214 -132 -231 -185 -7 -20 -10 -62
-8 -93 4 -47 14 -78 56 -165 9 -18 -86 54 -116 89 -54 61 -76 113 -76 180 0
67 18 110 68 163 52 56 71 62 202 59 115 -2 121 -1 173 28 30 16 70 49 90 73
42 50 52 40 22 -21z m16 -658 c-11 -28 -10 -33 16 -55 35 -30 41 -30 55 1 10
22 15 24 32 15 31 -16 24 -46 -16 -70 -35 -22 -38 -22 -160 -10 -68 7 -124 16
-124 19 0 5 198 131 206 131 1 0 -3 -14 -9 -31z"/>
<path d="M3315 6294 c-53 -14 -85 -26 -85 -33 0 -5 27 -11 60 -14 36 -3 86
-18 130 -38 38 -17 72 -30 74 -28 2 2 13 23 25 47 l22 42 -28 11 c-31 12 -167
21 -198 13z"/>
<path d="M3162 6216 c-83 -21 -88 -36 -11 -36 74 0 146 -29 215 -86 82 -67
180 -242 228 -406 26 -92 51 -302 42 -353 -4 -18 -3 -40 0 -49 6 -15 186 -166
198 -166 13 0 16 121 7 235 -27 320 -136 585 -305 743 -117 109 -247 150 -374
118z"/>
<path d="M3919 6180 c210 -101 403 -403 477 -745 24 -113 24 -325 0 -429 -34
-149 -92 -278 -194 -431 -102 -155 -131 -189 -396 -469 -78 -81 -143 -153
-145 -159 -7 -18 85 1 139 29 59 31 162 43 222 26 56 -15 114 3 163 52 63 63
202 277 266 411 112 232 152 400 152 645 1 243 -37 420 -129 602 -135 269
-379 475 -594 503 -43 5 -42 4 39 -35z"/>
<path d="M3520 6170 c-12 -7 -3 -20 43 -66 100 -99 170 -219 232 -400 49 -142
66 -245 72 -447 l6 -188 90 -112 c49 -62 94 -122 100 -134 6 -13 16 -23 22
-23 16 0 24 57 32 225 15 359 -81 724 -259 982 -57 83 -115 138 -164 159 -38
16 -151 19 -174 4z"/>
<path d="M3075 6147 c-78 -26 -82 -33 -22 -40 99 -10 170 -59 240 -165 86
-132 127 -269 127 -434 0 -105 0 -107 28 -126 29 -21 147 -82 158 -82 4 0 4
57 1 128 -13 270 -109 512 -257 646 -79 71 -190 100 -275 73z"/>
<path d="M3820 6115 c0 -4 25 -44 55 -89 103 -156 193 -373 236 -574 27 -130
36 -391 19 -574 -12 -125 -11 -140 4 -163 9 -14 20 -25 24 -25 14 0 101 185
123 262 26 93 36 275 20 389 -31 221 -109 396 -258 580 -63 79 -223 217 -223
194z"/>
<path d="M2943 6059 c-23 -11 -47 -27 -54 -35 -10 -12 -3 -14 47 -14 73 0 133
-28 178 -83 74 -92 104 -196 92 -325 -4 -42 -8 -88 -9 -100 -2 -21 8 -27 92
-58 74 -27 97 -32 103 -22 5 7 7 58 4 113 -20 366 -245 627 -453 524z"/>
<path d="M5477 6030 c-63 -10 -131 -37 -178 -70 l-29 -22 31 -39 c17 -21 35
-37 40 -34 4 3 14 24 20 45 7 22 14 40 16 40 2 0 39 -18 83 -40 l80 -40 32 20
c84 51 208 -9 208 -100 0 -37 -34 -86 -68 -98 -36 -13 -76 4 -80 34 -4 30 15
74 33 74 20 0 20 -39 0 -46 -8 -4 -12 -10 -9 -15 8 -14 40 -10 54 6 11 13 10
22 -3 50 -13 28 -23 35 -45 35 -70 0 -97 -96 -43 -151 35 -35 71 -37 124 -9
l37 20 27 -43 c61 -96 95 -259 75 -359 -5 -27 -6 -48 -2 -48 11 0 90 110 117
165 110 215 58 420 -140 550 -100 65 -250 95 -380 75z"/>
<path d="M5185 5848 c198 -352 272 -582 282 -874 7 -188 -5 -302 -48 -464 -74
-283 -226 -546 -458 -793 -50 -53 -91 -101 -91 -106 0 -5 9 -13 21 -16 33 -11
88 -65 110 -107 18 -35 22 -37 41 -27 12 7 74 64 138 128 241 241 375 510 441
881 40 223 26 537 -33 729 -61 201 -336 661 -429 719 -16 10 -11 -5 26 -70z"/>
<path d="M5379 5870 c-11 -37 -10 -44 21 -102 19 -35 75 -142 126 -238 51 -96
97 -176 103 -178 24 -8 8 37 -63 182 -41 83 -76 159 -79 168 -3 9 -1 44 5 77
9 48 9 63 -2 76 -12 15 -81 55 -94 55 -3 0 -11 -18 -17 -40z"/>
<path d="M7710 5740 c0 -5 5 -10 10 -10 6 0 10 5 10 10 0 6 -4 10 -10 10 -5 0
-10 -4 -10 -10z"/>
<path d="M2397 5620 c-72 -73 -97 -139 -97 -256 0 -82 1 -87 30 -116 29 -29
34 -30 103 -26 136 7 192 60 184 173 -5 77 -40 146 -111 222 l-54 58 -55 -55z"/>
<path d="M1948 5582 c-35 -39 -60 -106 -65 -177 -3 -40 -2 -75 3 -78 7 -4 279
88 292 99 15 12 -83 98 -164 145 -48 27 -52 28 -66 11z"/>
<path d="M2650 5389 l0 -64 168 0 c181 0 270 -13 412 -62 324 -111 592 -349
745 -660 28 -56 52 -102 55 -102 13 -2 81 103 77 118 -2 9 -48 83 -101 164
-166 252 -337 409 -571 522 -206 100 -347 133 -607 142 l-178 6 0 -64z"/>
<path d="M2164 5376 c-113 -32 -215 -72 -305 -118 -100 -51 -113 -65 -104
-117 8 -46 19 -50 67 -22 18 10 47 22 64 25 34 7 113 -15 154 -44 14 -9 57
-29 97 -44 39 -15 74 -34 77 -43 12 -31 -83 -6 -168 43 -104 60 -132 64 -226
26 -41 -17 -79 -37 -84 -45 -6 -9 5 -40 34 -97 37 -71 41 -84 29 -94 -92 -69
-279 -221 -279 -225 0 -13 196 -101 224 -101 17 0 71 24 133 61 120 70 193
104 243 113 19 3 28 3 20 -1 -98 -41 -210 -95 -275 -133 -92 -54 -129 -65
-171 -50 -32 12 -234 130 -234 136 0 3 9 0 20 -6 25 -13 16 -19 183 113 l137
109 -22 37 c-12 20 -29 47 -37 61 -8 14 -16 27 -18 29 -1 2 -35 -30 -75 -70
-40 -41 -109 -103 -153 -138 -44 -35 -84 -68 -90 -73 -6 -6 1 -19 20 -35 28
-24 28 -25 3 -9 -97 58 3 -65 108 -134 77 -50 202 -95 238 -86 13 3 58 29 101
57 106 69 199 115 269 133 101 27 110 -3 40 -133 -54 -100 -88 -149 -196 -284
-44 -55 -77 -102 -74 -105 12 -11 158 18 224 45 131 52 398 240 453 320 85
122 68 317 -43 503 -71 119 -127 182 -192 215 -70 37 -85 61 -86 143 0 43 -4
62 -12 61 -7 0 -50 -11 -94 -23z m-199 -345 c22 -10 51 -30 64 -44 23 -25 23
-27 7 -52 -64 -98 -205 -76 -234 35 -5 21 -7 42 -3 47 23 36 104 43 166 14z
m283 -337 c12 -8 22 -20 22 -26 0 -6 -9 -3 -19 6 -10 9 -32 21 -47 26 -28 8
-29 8 -4 9 14 1 36 -6 48 -15z"/>
<path d="M2461 5181 c-10 -7 -1 -26 42 -87 111 -161 157 -272 165 -399 3 -68
0 -92 -22 -158 -31 -93 -31 -87 -7 -87 23 0 63 48 87 106 26 59 23 181 -5 274
-35 113 -128 286 -186 344 -18 17 -52 21 -74 7z"/>
<path d="M5785 4784 c3 -38 13 -103 21 -144 18 -96 18 -157 0 -208 -10 -27
-11 -44 -5 -48 12 -7 11 -9 33 40 26 56 30 105 12 156 -9 25 -16 55 -16 66 0
27 64 73 121 85 59 14 77 -6 86 -93 l6 -65 -47 -32 c-26 -18 -56 -50 -68 -74
-21 -38 -22 -53 -19 -152 7 -192 6 -269 -2 -292 -5 -15 -4 -23 2 -23 29 0 36
47 36 247 0 188 1 203 21 230 49 66 134 79 199 28 40 -30 43 -41 15 -50 -37
-12 -51 -52 -76 -209 -25 -164 -42 -220 -83 -276 -54 -74 -118 -106 -237 -122
l-83 -11 -49 -116 c-27 -64 -46 -117 -42 -119 15 -6 283 128 345 172 206 148
317 422 276 683 -34 217 -185 364 -397 389 l-57 7 8 -69z"/>
<path d="M5681 4715 c-3 -149 -35 -326 -92 -500 -96 -298 -248 -528 -497 -757
-35 -33 -62 -65 -62 -76 0 -11 15 -43 34 -71 30 -43 47 -96 58 -174 6 -38 172
141 263 283 256 402 393 974 311 1300 l-14 55 -1 -60z"/>
<path d="M2034 4576 c-71 -37 -194 -123 -194 -134 0 -9 59 -32 79 -32 11 0 52
41 155 158 21 23 34 42 30 42 -5 0 -37 -15 -70 -34z"/>
<path d="M2103 4473 c-83 -82 -126 -145 -138 -203 -7 -32 -1 -27 76 62 83 95
157 204 147 214 -3 2 -41 -30 -85 -73z"/>
<path d="M1830 4229 c-25 -22 -99 -72 -165 -111 -66 -39 -135 -85 -154 -102
-40 -37 -70 -99 -71 -144 0 -55 48 -181 106 -277 30 -50 54 -100 54 -111 0
-11 -11 -35 -25 -54 -36 -48 -32 -79 16 -141 l42 -52 16 34 c15 32 46 56 155
121 92 55 114 151 54 244 -31 49 -39 90 -25 131 8 21 2 24 -93 53 -109 34
-138 58 -124 102 3 12 51 65 104 118 70 69 107 115 130 159 17 35 30 64 28 66
-2 2 -23 -15 -48 -36z"/>
<path d="M2475 3147 c-52 -24 -85 -72 -85 -123 0 -94 54 -144 156 -144 47 0
69 5 94 23 48 32 72 69 77 118 5 53 -11 87 -53 111 -42 25 -149 33 -189 15z"/>
<path d="M2315 3060 c-16 -18 -40 -36 -52 -40 -12 -5 -103 -4 -205 2 -166 11
-196 10 -291 -6 -58 -10 -119 -27 -135 -36 -39 -24 -67 -103 -66 -190 1 -117
58 -188 208 -259 48 -23 89 -41 91 -41 3 0 5 9 5 20 0 13 -14 25 -47 40 -112
49 -166 122 -167 226 -1 58 2 66 30 94 44 45 86 51 259 39 83 -6 172 -8 199
-5 49 5 115 37 129 62 4 8 15 14 23 14 27 0 10 -33 -33 -66 -64 -49 -125 -58
-340 -49 l-182 7 -26 -26 c-28 -28 -31 -54 -14 -122 22 -86 123 -150 254 -161
55 -5 62 -3 84 20 15 16 25 43 28 71 7 55 12 60 86 79 32 9 74 28 94 44 60 48
73 56 80 49 25 -25 -69 -104 -153 -129 -37 -10 -53 -21 -64 -43 -8 -16 -31
-60 -52 -98 -21 -38 -37 -71 -35 -73 2 -2 52 -4 110 -6 142 -3 152 5 221 163
16 36 32 69 36 73 4 5 22 1 40 -8 32 -16 115 -18 150 -2 11 5 24 -10 50 -56
54 -96 177 -212 285 -269 135 -70 244 -99 395 -105 l125 -5 -75 39 c-96 49
-177 112 -263 202 -59 63 -76 75 -138 96 -74 25 -159 72 -206 114 -15 13 -51
46 -80 72 l-51 48 -69 -1 c-127 -3 -192 56 -202 185 l-6 68 -30 -31z"/>
<path d="M2736 3021 c-4 -33 -18 -67 -42 -101 l-36 -52 54 -55 c59 -62 179
-145 234 -163 19 -7 37 -10 39 -8 1 1 -14 33 -35 69 -42 75 -92 198 -110 276
-13 58 -21 68 -66 77 -31 7 -31 7 -38 -43z"/>
<path d="M4011 2374 c-30 -8 -56 -16 -58 -18 -2 -1 14 -14 34 -27 49 -32 100
-100 114 -152 15 -55 5 -133 -26 -203 -14 -32 -24 -58 -23 -60 8 -7 174 58
217 85 144 93 158 208 38 318 -74 68 -179 89 -296 57z"/>
<path d="M3753 2291 l-102 -37 36 -28 c87 -70 97 -209 25 -348 -5 -12 80 -8
182 6 86 12 91 14 126 54 83 93 81 242 -3 330 -70 73 -114 77 -264 23z"/>
<path d="M3510 2224 c-41 -9 -76 -17 -78 -19 -2 -1 6 -18 17 -36 27 -44 27
-112 1 -186 -11 -32 -17 -60 -12 -63 16 -14 139 -45 178 -45 77 0 114 59 115
181 1 81 -15 122 -61 155 -36 27 -75 30 -160 13z"/>
<path d="M3157 2216 c-56 -20 -103 -60 -126 -109 -25 -52 -26 -67 -6 -134 17
-56 74 -117 120 -129 42 -11 111 2 169 30 126 62 174 225 91 309 -42 42 -174
59 -248 33z"/>
<path d="M2920 2042 c-44 -26 -48 -27 -295 -33 -213 -5 -255 -8 -284 -24 -74
-38 -92 -90 -67 -193 9 -37 31 -91 49 -120 l32 -54 5 86 c6 94 22 126 79 160
28 16 55 19 179 21 127 1 155 4 205 24 70 27 85 24 58 -11 -28 -35 -90 -48
-276 -55 -137 -6 -151 -8 -171 -28 -88 -88 -19 -314 113 -371 47 -20 96 -17
128 8 31 24 64 90 65 129 0 18 26 52 101 127 55 56 104 102 110 102 24 0 2
-34 -79 -121 -78 -83 -90 -100 -100 -150 -13 -58 -57 -123 -92 -134 -37 -12
-20 -25 33 -25 73 1 125 28 205 107 75 76 133 155 181 251 l32 64 -55 58 c-59
61 -71 83 -87 162 -6 26 -14 48 -17 47 -4 -1 -27 -13 -52 -27z"/>
<path d="M4982 2015 c-107 -19 -196 -36 -199 -39 -11 -10 71 -18 140 -13 68 4
249 57 272 78 12 12 12 12 -213 -26z"/>
<path d="M4344 2002 c-68 -64 -177 -109 -350 -146 -214 -45 -380 -44 -516 3
-33 11 -61 15 -74 11 -20 -8 -124 -117 -124 -130 0 -8 141 -43 245 -62 95 -18
483 -17 600 0 212 32 440 98 540 157 60 34 91 95 67 132 -7 11 -195 42 -307
50 -49 4 -64 1 -81 -15z"/>
<path d="M5173 1949 c-60 -18 -90 -101 -57 -157 20 -35 66 -58 144 -72 51 -10
170 -4 170 8 0 3 -8 14 -17 24 -18 20 -23 85 -9 124 7 19 0 24 -58 47 -78 32
-130 39 -173 26z"/>
</g>
</svg>
